<svg width="323" height="90" viewBox="0 0 323 90" fill="none" xmlns="http://www.w3.org/2000/svg">
<path d="M41.8 39H27.208V37.512L31.72 34.008L28.024 25.128H11.896L7.96 34.2L16.408 37.08L15.448 39H0.856V37.512L5.368 33.96L18.952 2.808L23.944 0.359997L37.96 34.152L42.76 37.08L41.8 39ZM20.152 6.12L12.856 22.968H27.16L20.152 6.12ZM63.7896 20.616C65.9656 20.616 67.6776 20.024 68.9256 18.84C70.2056 17.656 70.8456 16.024 70.8456 13.944C70.8456 11 70.0936 8.6 68.5896 6.744C67.1176 4.856 64.9576 3.912 62.1096 3.912C59.9336 3.912 57.9496 4.536 56.1576 5.784V35.064L63.5976 37.128L62.6376 39.048H45.6456V37.56L50.1576 34.008V4.824L45.1656 3.192L46.1256 1.272H51.6936C54.7976 1.272 57.8536 1.176 60.8616 0.983997C63.1016 0.855997 64.7496 0.791997 65.8056 0.791997C68.0456 0.791997 70.0296 1.272 71.7576 2.232C73.5176 3.16 74.8776 4.456 75.8376 6.12C76.7976 7.784 77.2776 9.624 77.2776 11.64C77.2776 13.88 76.4616 15.992 74.8296 17.976C73.1976 19.96 71.1176 21.512 68.5896 22.632C66.0616 23.752 63.5816 24.248 61.1496 24.12L58.8936 22.488L59.8536 20.568H63.7416L63.7896 20.616ZM104.268 30.504C104.268 29.512 103.868 28.584 103.068 27.72C102.268 26.856 101.26 26.072 100.044 25.368C98.8599 24.632 97.2439 23.736 95.1959 22.68C92.7639 21.4 90.8119 20.312 89.3399 19.416C87.8679 18.488 86.6039 17.4 85.5479 16.152C84.5239 14.904 84.0119 13.528 84.0119 12.024C84.0119 10.424 84.6839 8.712 86.0279 6.888C87.3719 5.032 89.0039 3.48 90.9239 2.232C92.8759 0.951998 94.6679 0.311997 96.2999 0.311997C98.2839 0.311997 100.588 0.551998 103.212 1.032C105.836 1.512 107.756 2.024 108.972 2.568V11.88H107.148C105.58 9.288 103.852 7.272 101.964 5.832C100.108 4.392 98.1559 3.672 96.1079 3.672C94.2839 3.672 92.8279 4.248 91.7399 5.4C90.6839 6.52 90.1559 7.992 90.1559 9.816C90.1559 10.872 90.5559 11.864 91.3559 12.792C92.1879 13.688 93.1959 14.488 94.3799 15.192C95.5959 15.896 97.2759 16.808 99.4199 17.928C101.788 19.112 103.708 20.168 105.18 21.096C106.652 21.992 107.884 23.048 108.876 24.264C109.9 25.448 110.412 26.792 110.412 28.296C110.412 29.896 109.692 31.624 108.252 33.48C106.812 35.304 105.052 36.856 102.972 38.136C100.924 39.384 99.0519 40.008 97.3559 40.008C95.2759 40.008 92.7959 39.768 89.9159 39.288C87.0679 38.808 85.0199 38.296 83.7719 37.752V28.44H85.5959C87.2279 31.032 89.0839 33.048 91.1639 34.488C93.2439 35.928 95.3879 36.648 97.5959 36.648C98.9079 36.648 100.076 36.36 101.1 35.784C102.124 35.208 102.908 34.456 103.452 33.528C103.996 32.568 104.268 31.56 104.268 30.504ZM154.581 39H139.989V37.512L144.501 34.008L140.805 25.128H124.677L120.741 34.2L129.189 37.08L128.229 39H113.637V37.512L118.149 33.96L131.733 2.808L136.725 0.359997L150.741 34.152L155.541 37.08L154.581 39ZM132.933 6.12L125.637 22.968H139.941L132.933 6.12ZM191.019 6.36V39.048H188.379L165.579 10.2V34.584L170.619 37.128L169.659 39.048H158.427V37.56L162.939 34.008V5.88L157.947 3.192L158.907 1.272H166.155L188.379 29.4V5.688L183.387 3.192L184.347 1.272H195.579V2.808L191.019 6.36ZM65.2188 50.312C66.9148 50.312 68.8668 50.552 71.0748 51.032C73.3148 51.512 74.9468 52.024 75.9708 52.568V61.88H74.1468C71.2028 56.856 67.2988 54.344 62.4348 54.344C60.3228 54.344 58.3868 54.968 56.6268 56.216C54.8988 57.432 53.5388 59.144 52.5468 61.352C51.5548 63.528 51.0588 65.976 51.0588 68.696C51.0588 71.832 51.5388 74.696 52.4988 77.288C53.4908 79.88 54.9788 81.96 56.9628 83.528C58.9788 85.096 61.4588 85.88 64.4028 85.88C67.1228 85.88 71.0268 83.832 76.1148 79.736L77.5548 82.04L68.7228 88.904C67.5388 89.32 66.3868 89.592 65.2668 89.72C64.1788 89.88 62.9948 89.96 61.7148 89.96C58.3548 89.96 55.3788 89.144 52.7868 87.512C50.1948 85.88 48.1788 83.64 46.7388 80.792C45.2988 77.912 44.5788 74.648 44.5788 71C44.5788 67.256 45.6668 63.8 47.8428 60.632C50.0188 57.432 52.7228 54.92 55.9548 53.096C59.1868 51.24 62.2748 50.312 65.2188 50.312ZM112.274 89H83.4738V87.512L87.9858 83.96V54.872L82.9938 53.192L83.9538 51.272H111.794L114.386 50.408V61.448L112.946 61.928L107.234 53.432H93.9858V68.648H101.522L105.026 62.504H106.514V77.096L104.594 78.056L101.57 70.808H93.9858V86.84H107.042L113.426 77.384L114.866 77.864V89.864L112.274 89ZM155.16 56.36V89.048H152.52L129.72 60.2V84.584L134.76 87.128L133.799 89.048H122.568V87.56L127.08 84.008V55.88L122.088 53.192L123.048 51.272H130.296L152.52 79.4V55.688L147.528 53.192L148.488 51.272H159.72V52.808L155.16 56.36ZM198.217 62.408L196.777 62.888L190.393 53.432H184.537V85.352L189.577 87.08L188.617 89H174.025V87.512L178.537 83.96V53.432H172.825L166.441 62.888L165.001 62.408V50.408L167.593 51.272H195.625L198.217 50.408V62.408ZM238.682 56.312V74.12C238.682 77.48 237.866 80.36 236.234 82.76C234.634 85.16 232.65 86.968 230.282 88.184C227.914 89.368 225.594 89.96 223.322 89.96C220.474 89.96 217.914 89.336 215.642 88.088C213.402 86.808 211.642 85.064 210.362 82.856C209.114 80.616 208.49 78.104 208.49 75.32V54.872L203.498 53.192L204.458 51.272H219.05V52.76L214.49 56.312V73.016C214.49 77.08 215.482 80.248 217.466 82.52C219.482 84.792 222.522 85.928 226.586 85.928C228.09 85.928 229.562 85.448 231.002 84.488C232.474 83.496 233.674 82.056 234.602 80.168C235.562 78.28 236.042 76.056 236.042 73.496V55.688L231.05 53.192L232.01 51.272H243.242V52.76L238.682 56.312ZM282.623 89.096H273.695L263.135 72.056L260.879 70.424L261.599 68.984H264.287C266.463 68.984 268.175 68.44 269.423 67.352C270.703 66.232 271.343 64.712 271.343 62.792C271.343 60.264 270.639 58.168 269.231 56.504C267.823 54.808 265.775 53.96 263.087 53.96C261.295 53.96 259.647 54.488 258.143 55.544V85.448L263.183 87.176L262.223 89.096H247.631V87.608L252.143 84.056V54.872L247.151 53.24L248.111 51.32H253.679C256.591 51.32 259.455 51.224 262.271 51.032C264.319 50.904 265.839 50.84 266.831 50.84C268.975 50.84 270.879 51.272 272.543 52.136C274.239 53 275.535 54.168 276.431 55.64C277.359 57.112 277.823 58.728 277.823 60.488C277.823 62.088 277.327 63.624 276.335 65.096C275.343 66.536 274.031 67.8 272.399 68.888C270.799 69.944 269.103 70.744 267.311 71.288L270.431 72.344L277.871 84.344L283.583 87.176L282.623 89.096ZM305.644 85.352L310.684 87.08L309.724 89H295.132V87.512L299.644 83.96V75.416L287.308 55.496L283.516 53.192L284.476 51.272H299.068V52.76L294.604 56.216L304.204 71.816L314.188 56.216L306.508 53.192L307.468 51.272H322.06V52.76L318.124 55.16L305.644 74.696V85.352Z" fill="black"/>
</svg>
